# This file uses centimeters as units for non-parametric coordinates.

v 0.067517 0.025547 -0.022714
v 0.057076 0.025547 -0.043204
v 0.040815 0.025547 -0.059465
v 0.020325 0.025547 -0.069906
v -0.002389 0.025547 -0.073503
v -0.025103 0.025547 -0.069906
v -0.045593 0.025547 -0.059465
v -0.061854 0.025547 -0.043204
v -0.072295 0.025547 -0.022714
v -0.075892 0.025547 0.000000
v -0.072295 0.025547 0.022714
v -0.061854 0.025547 0.043204
v -0.045593 0.025547 0.059465
v -0.025103 0.025547 0.069906
v -0.002389 0.025547 0.073503
v 0.020325 0.025547 0.069906
v 0.040815 0.025547 0.059465
v 0.057076 0.025547 0.043204
v 0.067517 0.025547 0.022714
v 0.071114 0.025547 0.000000
v 0.067517 3.377123 -0.022714
v 0.057076 3.377123 -0.043204
v 0.040815 3.377123 -0.059465
v 0.020325 3.377123 -0.069906
v -0.002389 3.377123 -0.073503
v -0.025103 3.377123 -0.069906
v -0.045593 3.377123 -0.059465
v -0.061854 3.377123 -0.043204
v -0.072295 3.377123 -0.022714
v -0.075892 3.377123 0.000000
v -0.072295 3.377123 0.022714
v -0.061854 3.377123 0.043204
v -0.045593 3.377123 0.059465
v -0.025103 3.377123 0.069906
v -0.002389 3.377123 0.073503
v 0.020325 3.377123 0.069906
v 0.040815 3.377123 0.059465
v 0.057076 3.377123 0.043204
v 0.067517 3.377123 0.022714
v 0.071114 3.377123 0.000000
v 0.076593 3.377123 -0.057383
v 0.027779 3.377123 -0.092848
v -0.032557 3.377123 -0.092848
v -0.059772 3.377123 -0.078981
v -0.095237 3.377123 -0.030168
v -0.081370 3.377123 0.057383
v -0.032557 3.377123 0.092848
v 0.054994 3.377123 0.078981
v 0.090459 3.377123 0.030168
v 0.076593 3.463551 -0.057383
v -0.032557 3.463551 -0.092848
v -0.081370 3.463551 -0.057383
v -0.095237 3.463551 0.030168
v -0.059772 3.463551 0.078981
v 0.027779 3.463551 0.092848
v 0.095237 3.463551 0.000000
v -0.002389 3.507200 0.000000
v 0.081419 0.020733 -0.027231
v 0.024842 0.020733 -0.083808
v -0.029620 0.020733 -0.083808
v -0.086197 0.020733 -0.027231
v -0.029620 0.020733 0.083808
v 0.024842 0.020733 0.083808
v 0.078933 -0.039934 -0.028463
v -0.029006 -0.039934 -0.083460
v -0.086197 0.020733 0.027231
v 0.081419 0.020733 0.027231
v -0.088196 -0.039934 -0.001992
v -0.029006 -0.039934 0.079476
v 0.047815 -0.039934 0.067308
v -0.025103 3.372602 0.069906
v -0.025103 0.029891 0.069906
v -0.045593 0.029891 0.059465
v -0.053025 3.191693 0.000000
v -0.032152 3.191693 -0.040965
v -0.002389 3.191693 -0.050636
v 0.038576 3.191693 -0.029763
v 0.048247 3.191693 0.000000
v 0.027374 3.191693 0.040965
v -0.002389 3.191693 0.050636
v -0.018036 3.191693 0.048157
v -0.043354 3.191693 0.029763
v -0.002389 0.358632 -0.050636
v 0.027374 0.358632 -0.040965
v 0.048247 0.358632 0.000000
v 0.038576 0.358632 0.029763
v -0.002389 0.358632 0.050636
v -0.018036 0.358632 0.048157
v -0.032152 0.358632 0.040965
v -0.053025 0.358632 0.000000
v -0.043354 0.358632 -0.029763
vt 0.898924 0.076119
vt 0.904764 0.075609
vt 0.910623 0.075191
vt 0.916498 0.074865
vt 0.922393 0.074634
vt 0.928311 0.074498
vt 0.934248 0.074460
vt 0.940203 0.074518
vt 0.946186 0.074681
vt 0.952192 0.074948
vt 0.958242 0.075336
vt 0.964285 0.076116
vt 0.970281 0.077023
vt 0.970100 0.078151
vt 0.976247 0.078048
vt 0.976054 0.079176
vt 0.858567 0.082547
vt 0.864258 0.081304
vt 0.869985 0.080173
vt 0.858802 0.083622
vt 0.875735 0.079150
vt 0.881503 0.078239
vt 0.887292 0.077433
vt 0.893097 0.076730
vt 0.729289 0.469752
vt 0.662378 0.503398
vt 0.665219 0.559220
vt 0.725028 0.707228
vt 0.763617 0.716814
vt 0.751472 0.743465
vt 0.799230 0.738123
vt 0.828538 0.771538
vt 0.799557 0.784733
vt 0.840719 0.812152
vt 0.842501 0.854646
vt 0.810438 0.851448
vt 0.828925 0.898252
vt 0.800784 0.931466
vt 0.802541 0.885401
vt 0.765384 0.953199
vt 0.726680 0.963438
vt 0.752977 0.926527
vt 0.687306 0.962560
vt 0.649762 0.950774
vt 0.616627 0.928500
vt 0.662589 0.924972
vt 0.590814 0.896314
vt 0.578140 0.855419
vt 0.616259 0.883983
vt 0.579332 0.815050
vt 0.590526 0.776207
vt 0.616645 0.743835
vt 0.618276 0.788718
vt 0.649282 0.721342
vt 0.686136 0.708926
vt 0.662538 0.746804
vt 0.727089 0.785037
vt 0.751953 0.842329
vt 0.739516 0.872590
vt 0.699833 0.885415
vt 0.674994 0.871621
vt 0.706820 0.834657
vt 0.663392 0.828160
vt 0.699960 0.783787
vt 0.785254 0.664431
vt 0.743149 0.678517
vt 0.739544 0.653636
vt 0.822749 0.637028
vt 0.852204 0.596948
vt 0.869200 0.545519
vt 0.866673 0.486335
vt 0.841688 0.446697
vt 0.810287 0.416790
vt 0.774519 0.396979
vt 0.736253 0.387559
vt 0.697393 0.388651
vt 0.659793 0.400214
vt 0.625460 0.421806
vt 0.596178 0.452766
vt 0.573760 0.492390
vt 0.572430 0.550028
vt 0.590033 0.600177
vt 0.619781 0.639135
vt 0.657359 0.665629
vt 0.699506 0.678908
vt 0.830184 0.584439
vt 0.844524 0.497629
vt 0.767111 0.418815
vt 0.613856 0.467645
vt 0.597336 0.546514
vt 0.731505 0.592360
vt 0.783264 0.518649
vt 0.700528 0.411277
vt 0.667154 0.642632
vt 0.903228 0.947686
vt 0.898161 0.947379
vt 0.893070 0.946967
vt 0.887958 0.946427
vt 0.882832 0.945743
vt 0.877713 0.944893
vt 0.872830 0.942870
vt 0.872628 0.943868
vt 0.973477 0.942146
vt 0.973682 0.943138
vt 0.968643 0.944209
vt 0.963570 0.945118
vt 0.958488 0.945873
vt 0.953412 0.946488
vt 0.948345 0.946982
vt 0.943301 0.947362
vt 0.938277 0.947650
vt 0.933271 0.947863
vt 0.928277 0.948002
vt 0.923284 0.948076
vt 0.918292 0.948085
vt 0.913290 0.948025
vt 0.908271 0.947898
vt 0.935572 0.164081
vt 0.923081 0.164072
vt 0.914754 0.164121
vt 0.902281 0.164272
vt 0.893989 0.164421
vt 0.881607 0.164710
vt 0.877498 0.164821
vt 0.960444 0.164322
vt 0.956316 0.164267
vt 0.943886 0.164140
vt 0.947739 0.902669
vt 0.935361 0.902815
vt 0.927093 0.902884
vt 0.914684 0.902944
vt 0.906420 0.902953
vt 0.894054 0.902928
vt 0.885843 0.902888
vt 0.881750 0.902864
vt 0.964154 0.902414
vt 0.955963 0.902548
vn 0.474806 0.866463 -0.154276
vn 0.403895 0.866462 -0.293449
vn 0.807126 0.068321 -0.586412
vn 0.948835 0.068321 -0.308294
vn 0.154274 0.866464 -0.474805
vn -0.000001 0.068321 -0.997663
vn 0.308294 0.068321 -0.948835
vn -0.154274 0.866463 -0.474806
vn -0.293448 0.866463 -0.403895
vn -0.586411 0.068321 -0.807127
vn -0.308294 0.068321 -0.948835
vn -0.474808 0.866463 -0.154271
vn -0.997663 0.068321 0.000000
vn -0.948835 0.068321 -0.308294
vn -0.474808 0.866463 0.154273
vn -0.403895 0.866462 0.293449
vn -0.807127 0.068321 0.586412
vn -0.948834 0.068321 0.308295
vn -0.403895 0.866462 0.293449
vn -0.293447 0.866462 0.403896
vn -0.807127 0.068321 0.586412
vn -0.293447 0.866462 0.403896
vn -0.154275 0.866464 0.474805
vn -0.308295 0.068321 0.948834
vn -0.586412 0.068321 0.807127
vn -0.154275 0.866464 0.474805
vn 0.000000 0.866463 0.499241
vn -0.308295 0.068321 0.948834
vn 0.000000 0.866463 0.499241
vn 0.154275 0.866463 0.474806
vn 0.000000 0.068321 0.997663
vn 0.154275 0.866463 0.474806
vn 0.293447 0.866462 0.403896
vn 0.586412 0.068321 0.807127
vn 0.308295 0.068321 0.948834
vn 0.474808 0.866463 0.154273
vn 0.997663 0.068321 0.000001
vn 0.948834 0.068321 0.308295
vn -0.200944 -0.969228 0.142190
vn -0.237707 -0.968559 0.073405
vn 0.000000 -1.000000 -0.000001
vn 0.075590 -0.970252 0.229995
vn -0.000250 -0.970313 0.241854
vn 0.000000 -1.000000 -0.000001
vn 0.250241 -0.968176 -0.003823
vn 0.236439 -0.968883 0.073227
vn 0.000000 -1.000000 -0.000001
vn 0.137723 -0.989459 -0.044752
vn 0.117154 -0.989459 -0.085118
vn 0.927172 -0.222704 -0.301256
vn 0.117154 -0.989459 -0.085118
vn 0.085118 -0.989459 -0.117158
vn 0.573023 -0.222704 -0.788700
vn 0.788700 -0.222704 -0.573023
vn 0.085118 -0.989459 -0.117158
vn 0.044749 -0.989460 -0.137722
vn 0.573023 -0.222704 -0.788700
vn 0.044749 -0.989460 -0.137722
vn 0.000000 -0.989460 -0.144805
vn 0.000000 -0.222704 -0.974886
vn 0.301255 -0.222704 -0.927172
vn 0.000000 -0.989460 -0.144805
vn -0.044749 -0.989460 -0.137721
vn 0.000000 -0.222704 -0.974886
vn -0.044749 -0.989460 -0.137721
vn -0.085117 -0.989459 -0.117157
vn -0.573024 -0.222704 -0.788699
vn -0.301256 -0.222704 -0.927172
vn -0.085117 -0.989459 -0.117157
vn -0.117154 -0.989459 -0.085120
vn -0.573024 -0.222704 -0.788699
vn -0.117154 -0.989459 -0.085120
vn -0.137723 -0.989459 -0.044749
vn -0.927172 -0.222704 -0.301256
vn -0.788699 -0.222704 -0.573024
vn -0.137723 -0.989459 -0.044749
vn -0.144811 -0.989459 0.000000
vn -0.927172 -0.222704 -0.301256
vn -0.144811 -0.989459 0.000000
vn -0.137723 -0.989459 0.044749
vn -0.927172 -0.222704 0.301256
vn -0.974886 -0.222704 0.000000
vn -0.137723 -0.989459 0.044749
vn -0.117154 -0.989460 0.085117
vn -0.927172 -0.222704 0.301256
vn -0.117154 -0.989460 0.085117
vn -0.085117 -0.989459 0.117156
vn -0.788699 -0.222704 0.573024
vn -0.085117 -0.989459 0.117156
vn -0.044749 -0.989459 0.137724
vn -0.301256 -0.222704 0.927172
vn -0.573024 -0.222704 0.788699
vn -0.044749 -0.989459 0.137724
vn 0.000000 -0.989459 0.144814
vn -0.301256 -0.222704 0.927172
vn 0.000000 -0.989459 0.144814
vn 0.044749 -0.989459 0.137727
vn 0.301256 -0.222704 0.927172
vn 0.000000 -0.222704 0.974886
vn 0.044749 -0.989459 0.137727
vn 0.085117 -0.989459 0.117156
vn 0.301256 -0.222704 0.927172
vn 0.085117 -0.989459 0.117156
vn 0.117154 -0.989459 0.085119
vn 0.573024 -0.222704 0.788699
vn 0.117154 -0.989459 0.085119
vn 0.137723 -0.989459 0.044749
vn 0.927172 -0.222704 0.301256
vn 0.788699 -0.222704 0.573024
vn 0.137723 -0.989459 0.044749
vn 0.144811 -0.989459 -0.000003
vn 0.927172 -0.222704 0.301256
vn 0.144811 -0.989459 -0.000003
vn 0.137723 -0.989459 -0.044752
vn 0.927172 -0.222704 -0.301256
vn 0.974886 -0.222704 -0.000001
vn 0.788700 -0.222704 -0.573023
vn 0.573023 -0.222704 -0.788700
vn 0.809017 0.000000 -0.587785
vn 0.301255 -0.222704 -0.927172
vn 0.000000 -0.222704 -0.974886
vn 0.000000 0.000000 -1.000000
vn -0.301256 -0.222704 -0.927172
vn -0.587785 0.000000 -0.809017
vn -0.309017 0.000000 -0.951057
vn -0.788699 -0.222704 -0.573024
vn -0.951057 0.000000 -0.309017
vn -0.809017 0.000000 -0.587785
vn -0.974886 -0.222704 0.000000
vn -0.927172 -0.222704 0.301256
vn -1.000000 0.000000 0.000000
vn -0.788699 -0.222704 0.573024
vn -0.809017 0.000000 0.587785
vn -0.951057 0.000000 0.309017
vn -0.573024 -0.222704 0.788699
vn -0.309017 0.000000 0.951057
vn -0.587785 0.000000 0.809017
vn 0.000000 -0.222704 0.974886
vn 0.301256 -0.222704 0.927172
vn 0.000000 0.000000 1.000000
vn 0.788699 -0.222704 0.573024
vn 0.951057 0.000000 0.309017
vn 0.809017 0.000000 0.587785
vn 0.974886 -0.222704 -0.000001
vn 0.927172 -0.222704 -0.301256
vn 0.951057 0.000000 -0.309016
vn 1.000000 0.000000 0.000000
vn -0.381854 0.760235 0.525576
vn -0.297993 0.861961 0.410151
vn -0.410152 0.861960 0.297994
vn -0.200752 0.760234 0.617853
vn 0.000000 0.760234 0.649649
vn -0.156664 0.861960 0.482163
vn 0.525577 0.760235 0.381854
vn 0.410152 0.861960 0.297993
vn 0.297993 0.861961 0.410150
vn 0.403895 0.866462 -0.293449
vn 0.474806 0.866463 -0.154276
vn 0.641539 0.609240 -0.466107
vn 0.293448 0.866463 -0.403893
vn 0.403895 0.866462 -0.293449
vn 0.641539 0.609240 -0.466107
vn 0.466105 0.609240 -0.641539
vn 0.154274 0.866464 -0.474805
vn 0.293448 0.866463 -0.403893
vn 0.245046 0.609241 -0.754174
vn 0.000000 0.866462 -0.499243
vn 0.154274 0.866464 -0.474805
vn 0.000000 0.609240 -0.792986
vn -0.154274 0.866463 -0.474806
vn 0.000000 0.866462 -0.499243
vn 0.000000 0.609240 -0.792986
vn -0.245047 0.609242 -0.754173
vn -0.293448 0.866463 -0.403895
vn -0.154274 0.866463 -0.474806
vn -0.466107 0.609240 -0.641538
vn -0.403897 0.866462 -0.293447
vn -0.293448 0.866463 -0.403895
vn -0.466107 0.609240 -0.641538
vn -0.641540 0.609238 -0.466107
vn -0.474808 0.866463 -0.154271
vn -0.403897 0.866462 -0.293447
vn -0.754175 0.609239 -0.245047
vn -0.499242 0.866463 0.000000
vn -0.474808 0.866463 -0.154271
vn -0.792987 0.609239 0.000000
vn -0.474808 0.866463 0.154273
vn -0.499242 0.866463 0.000000
vn -0.792987 0.609239 0.000000
vn -0.754175 0.609239 0.245047
vn -0.403895 0.866462 0.293449
vn -0.474808 0.866463 0.154273
vn -0.641539 0.609239 0.466106
vn -0.293447 0.866462 0.403896
vn -0.403895 0.866462 0.293449
vn -0.641539 0.609239 0.466106
vn -0.466106 0.609240 0.641539
vn -0.154275 0.866464 0.474805
vn -0.293447 0.866462 0.403896
vn -0.245047 0.609240 0.754174
vn 0.000000 0.866463 0.499241
vn -0.154275 0.866464 0.474805
vn 0.000000 0.609239 0.792987
vn 0.154275 0.866463 0.474806
vn 0.000000 0.866463 0.499241
vn 0.000000 0.609239 0.792987
vn 0.245047 0.609241 0.754174
vn 0.293447 0.866462 0.403896
vn 0.154275 0.866463 0.474806
vn 0.466107 0.609240 0.641538
vn 0.403896 0.866462 0.293449
vn 0.293447 0.866462 0.403896
vn 0.466107 0.609240 0.641538
vn 0.641540 0.609239 0.466107
vn 0.474808 0.866463 0.154273
vn 0.403896 0.866462 0.293449
vn 0.754174 0.609239 0.245048
vn 0.499242 0.866463 -0.000002
vn 0.474808 0.866463 0.154273
vn 0.792986 0.609240 0.000000
vn 0.474806 0.866463 -0.154276
vn 0.499242 0.866463 -0.000002
vn 0.792986 0.609240 0.000000
vn 0.754174 0.609239 -0.245049
vn 0.586466 0.066975 -0.807200
vn 0.807200 0.066975 -0.586466
vn 0.587366 -0.092392 -0.804030
vn 0.586466 0.066975 -0.807200
vn 0.587366 -0.092392 -0.804030
vn 0.309344 -0.085601 -0.947090
vn -0.308324 0.066976 -0.948921
vn 0.000000 0.066976 -0.997755
vn -0.308859 -0.083691 -0.947419
vn -0.807201 0.066975 -0.586465
vn -0.586467 0.066976 -0.807199
vn -0.587186 -0.088794 -0.804567
vn -0.806960 -0.097301 -0.582535
vn -0.948921 0.066975 0.308324
vn -0.997755 0.066975 0.000000
vn -0.992707 -0.120496 0.003793
vn -0.586465 0.066975 0.807201
vn -0.579007 -0.152939 0.800850
vn -0.303819 -0.159036 0.939362
vn 0.308324 0.066975 0.948921
vn 0.000000 0.066975 0.997755
vn 0.000257 -0.161706 0.986839
vn 0.304203 -0.160729 0.938950
vn 0.807201 0.066975 0.586465
vn 0.586466 0.066975 0.807200
vn 0.579060 -0.156185 0.800185
vn 0.948921 0.066975 -0.308323
vn 0.991986 -0.126296 0.003752
vn 0.946018 -0.113886 -0.303446
vn -0.941516 -0.132774 0.309708
vn -0.237707 -0.968559 0.073405
vn -0.200944 -0.969228 0.142190
vn 0.940876 -0.138185 0.309284
vn 0.236439 -0.968883 0.073227
vn 0.250241 -0.968176 -0.003823
vn 0.943974 -0.121811 0.306717
vn 0.992553 -0.121811 0.000002
vn 0.144811 -0.989459 -0.000003
vn 0.802993 -0.121811 0.583408
vn 0.137723 -0.989459 0.044749
vn 0.117154 -0.989459 0.085119
vn 0.000000 -0.121811 0.992553
vn 0.044749 -0.989459 0.137727
vn 0.000000 -0.989459 0.144814
vn 0.000000 -0.121811 0.992553
vn 0.000000 -0.989459 0.144814
vn -0.044749 -0.989459 0.137724
vn -0.583408 -0.121811 0.802993
vn -0.306716 -0.121811 0.943974
vn -0.044749 -0.989459 0.137724
vn -0.943975 -0.121811 -0.306715
vn -0.992553 -0.121811 -0.000001
vn -0.144811 -0.989459 0.000000
vn -0.802993 -0.121811 -0.583408
vn -0.137723 -0.989459 -0.044749
vn -0.117154 -0.989459 -0.085120
vn 0.306715 -0.121811 -0.943975
vn -0.000001 -0.121811 -0.992553
vn 0.000000 -0.989460 -0.144805
vn 0.583408 -0.121811 -0.802992
vn 0.044749 -0.989460 -0.137722
vn 0.085118 -0.989459 -0.117158
vn -0.587785 0.000000 -0.809017
vn -0.525577 0.760235 -0.381854
vn -0.381855 0.760235 -0.525576
vn 0.309016 0.000000 -0.951057
vn 0.000000 0.760234 -0.649649
vn 0.200752 0.760236 -0.617852
vn 0.951057 0.000000 0.309017
vn 0.649649 0.760234 -0.000002
vn 0.617852 0.760235 0.200754
vn -0.309017 0.000000 0.951057
vn 0.000000 0.760234 0.649649
vn -0.200752 0.760234 0.617853
vn -0.951057 0.000000 -0.309017
vn -0.649649 0.760235 0.000002
vn -0.617852 0.760235 -0.200753
vn -0.948835 0.068321 -0.308294
vn -0.997663 0.068321 0.000000
vn -0.999962 0.008714 0.000000
vn -0.951021 0.008714 -0.309005
vn -0.308294 0.068321 -0.948835
vn -0.586411 0.068321 -0.807127
vn -0.587762 0.008714 -0.808987
vn -0.309005 0.008714 -0.951021
vn 0.308294 0.068321 -0.948835
vn -0.000001 0.068321 -0.997663
vn -0.000002 0.008714 -0.999962
vn 0.309005 0.008714 -0.951021
vn 0.948835 0.068321 -0.308294
vn 0.807126 0.068321 -0.586412
vn 0.808986 0.008714 -0.587763
vn 0.951021 0.008714 -0.309005
vn 0.948834 0.068321 0.308295
vn 0.997663 0.068321 0.000001
vn 0.999962 0.008714 0.000002
vn 0.951020 0.008714 0.309006
vn 0.308295 0.068321 0.948834
vn 0.586412 0.068321 0.807127
vn 0.587763 0.008714 0.808986
vn 0.309006 0.008714 0.951020
vn 0.000000 0.068321 0.997663
vn 0.000000 0.008714 0.999962
vn -0.309006 0.008714 0.951020
vn -0.586412 0.068321 0.807127
vn -0.308295 0.068321 0.948834
vn -0.309006 0.008714 0.951020
vn -0.587763 0.008714 0.808986
vn -0.948834 0.068321 0.308295
vn -0.807127 0.068321 0.586412
vn -0.808986 0.008714 0.587763
vn -0.951020 0.008714 0.309006
vn 0.482163 0.861960 -0.156667
vn 0.410152 0.861960 -0.297993
vn 0.299548 0.949104 -0.097333
vn 0.297993 0.861961 -0.410150
vn 0.156664 0.861961 -0.482162
vn 0.185131 0.949104 -0.254809
vn -0.156664 0.861960 -0.482164
vn -0.297993 0.861961 -0.410151
vn -0.097329 0.949104 -0.299547
vn -0.410152 0.861960 -0.297993
vn -0.482162 0.861960 -0.156666
vn -0.254811 0.949104 -0.185131
vn -0.999957 -0.009282 0.000000
vn -0.992553 -0.121811 -0.000001
vn -0.943975 -0.121811 -0.306715
vn -0.808983 -0.009282 -0.587759
vn -0.951016 -0.009282 -0.309003
vn -0.943975 -0.121811 -0.306715
vn -0.802993 -0.121811 -0.583408
vn -0.309003 -0.009282 -0.951016
vn -0.587759 -0.009282 -0.808983
vn -0.583407 -0.121811 -0.802993
vn -0.306715 -0.121811 -0.943975
vn -0.000002 -0.009282 -0.999957
vn -0.000001 -0.121811 -0.992553
vn 0.306715 -0.121811 -0.943975
vn 0.587760 -0.009282 -0.808982
vn 0.309003 -0.009282 -0.951016
vn 0.306715 -0.121811 -0.943975
vn 0.583408 -0.121811 -0.802992
vn 0.951016 -0.009282 -0.309003
vn 0.808982 -0.009282 -0.587760
vn 0.802992 -0.121811 -0.583408
vn 0.943975 -0.121811 -0.306715
vn 0.999957 -0.009282 0.000002
vn 0.992553 -0.121811 0.000002
vn 0.943974 -0.121811 0.306717
vn 0.808982 -0.009282 0.587760
vn 0.951015 -0.009282 0.309004
vn 0.943974 -0.121811 0.306717
vn 0.802993 -0.121811 0.583408
vn 0.309004 -0.009282 0.951015
vn 0.587760 -0.009282 0.808982
vn 0.583408 -0.121811 0.802993
vn 0.306716 -0.121811 0.943974
vn 0.309004 -0.009282 0.951015
vn 0.306716 -0.121811 0.943974
vn 0.000000 -0.121811 0.992553
vn -0.309004 -0.009282 0.951015
vn 0.000000 -0.009282 0.999957
vn -0.306716 -0.121811 0.943974
vn -0.587760 -0.009282 0.808982
vn -0.309004 -0.009282 0.951015
vn -0.306716 -0.121811 0.943974
vn -0.583408 -0.121811 0.802993
vn -0.587760 -0.009282 0.808982
vn -0.583408 -0.121811 0.802993
vn -0.802993 -0.121811 0.583408
vn -0.951015 -0.009282 0.309004
vn -0.808982 -0.009282 0.587760
vn -0.802993 -0.121811 0.583408
vn -0.943974 -0.121811 0.306716
vn -0.309005 0.008714 -0.951021
vn -0.587762 0.008714 -0.808987
vn -0.587759 -0.009282 -0.808983
vn -0.309003 -0.009282 -0.951016
vn 0.309005 0.008714 -0.951021
vn -0.000002 0.008714 -0.999962
vn 0.309003 -0.009282 -0.951016
vn 0.309005 0.008714 -0.951021
vn 0.309003 -0.009282 -0.951016
vn 0.587760 -0.009282 -0.808982
vn 0.951021 0.008714 -0.309005
vn 0.808986 0.008714 -0.587763
vn 0.808982 -0.009282 -0.587760
vn 0.951016 -0.009282 -0.309003
vn 0.951020 0.008714 0.309006
vn 0.999962 0.008714 0.000002
vn 0.951015 -0.009282 0.309004
vn 0.951020 0.008714 0.309006
vn 0.951015 -0.009282 0.309004
vn 0.808982 -0.009282 0.587760
vn 0.309006 0.008714 0.951020
vn 0.587763 0.008714 0.808986
vn 0.587760 -0.009282 0.808982
vn 0.309004 -0.009282 0.951015
vn -0.309006 0.008714 0.951020
vn 0.000000 0.008714 0.999962
vn 0.000000 -0.009282 0.999957
vn -0.309004 -0.009282 0.951015
vn -0.587763 0.008714 0.808986
vn -0.309006 0.008714 0.951020
vn -0.309004 -0.009282 0.951015
vn -0.587760 -0.009282 0.808982
vn -0.951020 0.008714 0.309006
vn -0.808986 0.008714 0.587763
vn -0.808982 -0.009282 0.587760
vn -0.951015 -0.009282 0.309004
vn -0.951021 0.008714 -0.309005
vn -0.999962 0.008714 0.000000
vn -0.951016 -0.009282 -0.309003
vn -0.951021 0.008714 -0.309005
vn -0.951016 -0.009282 -0.309003
vn -0.808983 -0.009282 -0.587759
s off
f 1/1/1 2/2/2 3/3/3 20/24/4
f 4/4/5 5/5/6 3/3/7
f 6/6/8 7/7/9 8/8/10 5/5/11
f 9/9/12 10/10/13 8/8/14
f 11/11/15 12/12/16 73/14/17 10/10/18
f 12/12/19 13/13/20 73/14/21
f 13/13/22 14/15/23 72/16/24 73/14/25
f 14/17/26 15/18/27 72/20/28
f 15/18/29 16/19/30 72/20/31
f 16/19/32 17/21/33 18/22/34 72/20/35
f 19/23/36 20/24/37 18/22/38
f 69/26/39 68/25/40 65/92/41
f 70/27/42 69/26/43 65/92/44
f 64/91/45 70/27/46 65/92/47
f 21/28/48 22/29/49 41/30/50
f 22/29/51 23/31/52 42/33/53 41/30/54
f 23/31/55 24/32/56 42/33/57
f 24/32/58 25/34/59 43/36/60 42/33/61
f 25/34/62 26/35/63 43/36/64
f 26/35/65 27/37/66 44/39/67 43/36/68
f 27/37/69 28/38/70 44/39/71
f 28/38/72 29/40/73 45/42/74 44/39/75
f 29/40/76 30/41/77 45/42/78
f 30/41/79 31/43/80 46/46/81 45/42/82
f 31/43/83 32/44/84 46/46/85
f 32/44/86 33/45/87 46/46/88
f 33/45/89 34/47/90 47/49/91 46/46/92
f 34/47/93 35/48/94 47/49/95
f 35/48/96 36/50/97 48/53/98 47/49/99
f 36/50/100 37/51/101 48/53/102
f 37/51/103 38/52/104 48/53/105
f 38/52/106 39/54/107 49/56/108 48/53/109
f 39/54/110 40/55/111 49/56/112
f 40/55/113 21/28/114 41/30/115 49/56/116
f 41/30/117 42/33/118 50/57/119
f 42/33/120 43/36/121 51/58/122
f 43/36/123 44/39/124 51/58/125
f 44/39/126 45/42/127 52/59/128
f 45/42/129 46/46/130 53/60/131
f 46/46/132 54/61/133 53/60/134
f 46/46/135 47/49/136 54/61/137
f 47/49/138 48/53/139 55/63/140
f 48/53/141 49/56/142 55/63/143
f 49/56/144 41/30/145 50/57/146 56/64/147
f 54/61/148 57/62/149 53/60/150
f 54/61/151 55/63/152 57/62/153
f 55/63/154 56/64/155 57/62/156
f 2/65/157 1/66/158 58/67/159
f 3/68/160 2/65/161 58/67/162 59/86/163
f 4/69/164 3/68/165 59/86/166
f 5/70/167 4/69/168 59/86/169
f 6/71/170 5/70/171 59/86/172 60/87/173
f 7/72/174 6/71/175 60/87/176
f 8/73/177 7/72/178 60/87/179 61/88/180
f 9/74/181 8/73/182 61/88/183
f 10/75/184 9/74/185 61/88/186
f 11/76/187 10/75/188 61/88/189 66/93/190
f 12/77/191 11/76/192 66/93/193
f 13/78/194 12/77/195 66/93/196 62/89/197
f 14/79/198 13/78/199 62/89/200
f 15/80/201 14/79/202 62/89/203
f 16/81/204 15/80/205 62/89/206 63/90/207
f 17/82/208 16/81/209 63/90/210
f 18/83/211 17/82/212 63/90/213 67/94/214
f 19/84/215 18/83/216 67/94/217
f 20/85/218 19/84/219 67/94/220
f 1/66/221 20/85/222 67/94/223 58/67/224
f 59/86/225 58/67/226 64/91/227
f 59/86/228 64/91/229 65/92/230
f 60/87/231 59/86/232 65/92/233
f 61/88/234 60/87/235 65/92/236 68/25/237
f 66/93/238 61/88/239 68/25/240
f 62/89/241 66/93/242 69/26/243
f 63/90/244 62/89/245 69/26/246 70/27/247
f 67/94/248 63/90/249 70/27/250
f 58/67/251 67/94/252 64/91/253
f 66/93/254 68/25/255 69/26/256
f 67/94/257 70/27/258 64/91/259
f 39/96/260 21/117/261 40/95/262
f 37/98/263 39/96/264 38/97/265
f 71/101/266 36/99/267 35/100/268
f 71/101/269 35/100/270 34/102/271
f 33/105/272 71/103/273 34/104/274
f 29/109/275 31/107/276 30/108/277
f 27/111/278 29/109/279 28/110/280
f 24/114/281 26/112/282 25/113/283
f 22/116/284 24/114/285 23/115/286
f 44/39/287 52/59/288 51/58/289
f 42/33/290 51/58/291 50/57/292
f 49/56/293 56/64/294 55/63/295
f 47/49/296 55/63/297 54/61/298
f 45/42/299 53/60/300 52/59/301
f 8/8/302 10/10/303 90/127/304 91/118/305
f 5/5/306 8/8/307 91/118/308 83/119/309
f 3/3/310 5/5/311 83/119/312 84/120/313
f 20/24/314 3/3/315 84/120/316 85/121/317
f 18/22/318 20/24/319 85/121/320 86/122/321
f 72/20/322 18/22/323 86/122/324 87/123/325
f 72/20/326 87/123/327 88/124/328
f 73/14/329 72/16/330 88/125/331 89/126/332
f 10/10/333 73/14/334 89/126/335 90/127/336
f 56/64/337 50/57/338 57/62/339
f 50/57/340 51/58/341 57/62/342
f 51/58/343 52/59/344 57/62/345
f 52/59/346 53/60/347 57/62/348
f 74/128/349 31/107/350 29/109/351
f 75/129/352 74/128/353 29/109/354 27/111/355
f 76/130/356 75/129/357 27/111/358 26/112/359
f 76/130/360 26/112/361 24/114/362
f 77/131/363 76/130/364 24/114/365 22/116/366
f 78/132/367 77/131/368 22/116/369 21/117/370
f 78/132/371 21/117/372 39/96/373
f 79/133/374 78/132/375 39/96/376 37/98/377
f 80/134/378 79/133/379 37/98/380 36/99/381
f 80/134/382 36/99/383 71/101/384
f 81/135/385 80/134/386 71/101/387
f 82/137/388 81/136/389 71/103/390 33/105/391
f 82/137/392 33/105/393 32/106/394
f 74/128/395 82/137/396 32/106/397 31/107/398
f 83/119/399 91/118/400 75/129/401 76/130/402
f 84/120/403 83/119/404 76/130/405
f 84/120/406 76/130/407 77/131/408
f 85/121/409 84/120/410 77/131/411 78/132/412
f 86/122/413 85/121/414 78/132/415
f 86/122/416 78/132/417 79/133/418
f 87/123/419 86/122/420 79/133/421 80/134/422
f 88/124/423 87/123/424 80/134/425 81/135/426
f 89/126/427 88/125/428 81/136/429 82/137/430
f 90/127/431 89/126/432 82/137/433 74/128/434
f 91/118/435 90/127/436 74/128/437
f 91/118/438 74/128/439 75/129/440
